<svg xmlns="http://www.w3.org/2000/svg" xmlns:xlink="http://www.w3.org/1999/xlink" xmlns:lucid="lucid" width="1481" height="1121"><g transform="translate(620.5 400.5)" lucid:page-tab-id="0_0"><path d="M-1000-500h2000v1500h-2000z" fill="#fff"/><path d="M-340-392a8 8 0 0 1 8-8H852a8 8 0 0 1 8 8V712a8 8 0 0 1-8 8H-332a8 8 0 0 1-8-8z" stroke="#000" stroke-opacity="0" fill="#edf5ff"/><use xlink:href="#a" transform="matrix(1,0,0,1,-332,-392) translate(365.1662808641975 28.502604166666668)"/><use xlink:href="#b" transform="matrix(1,0,0,1,-332,-392) translate(484.3391203703703 28.502604166666668)"/><use xlink:href="#c" transform="matrix(1,0,0,1,-332,-392) translate(529.1909722222222 28.502604166666668)"/><use xlink:href="#d" transform="matrix(1,0,0,1,-332,-392) translate(648.1045524691358 28.502604166666668)"/><path d="M-80-260c0 33.14-35.82 60-80 60s-80-26.86-80-60 35.82-60 80-60 80 26.86 80 60z" stroke="#ff80df" fill="#4d9eff"/><use xlink:href="#e" transform="matrix(1,0,0,1,-240,-320) translate(21.07999999999999 51.9)"/><use xlink:href="#f" transform="matrix(1,0,0,1,-240,-320) translate(118.93 51.9)"/><use xlink:href="#g" transform="matrix(1,0,0,1,-240,-320) translate(63.580000000000005 73.5)"/><path d="M340-100c0 33.14-35.82 60-80 60s-80-26.86-80-60 35.82-60 80-60 80 26.86 80 60z" stroke="#000" stroke-opacity="0" fill="#4d9eff"/><use xlink:href="#h" transform="matrix(1,0,0,1,180,-160) translate(12.154999999999996 63.15)"/><use xlink:href="#i" transform="matrix(1,0,0,1,180,-160) translate(90.00500000000001 63.15)"/><use xlink:href="#g" transform="matrix(1,0,0,1,180,-160) translate(115.00500000000001 63.15)"/><path d="M-512.75-215.42c0 15.05-12.2 27.25-27.25 27.25s-27.25-12.2-27.25-27.25 12.2-27.25 27.25-27.25 27.25 12.2 27.25 27.25z" stroke="#3a414a" fill="#fff"/><path d="M-540-188.17v70.3a15.4 15.4 0 0 0 4.06 10.43L-460-24.67m-80-87.2l-80 87.2m0-136.25h160" stroke="#3a414a" fill="none"/><path d="M-620-236.67a6 6 0 0 1 6-6h148a6 6 0 0 1 6 6v228a6 6 0 0 1-6 6h-148a6 6 0 0 1-6-6z" fill="none"/><use xlink:href="#j" transform="matrix(1,0,0,1,-700,-24.666666666666657) translate(136.370987654321 17.95555555555555)"/><path d="M-505.25 276.74c0 19.2-15.56 34.75-34.75 34.75-19.2 0-34.75-15.57-34.75-34.76 0-19.2 15.56-34.75 34.75-34.75 19.2 0 34.75 15.54 34.75 34.74z" stroke="#3a414a" fill="#fff"/><path d="M-540 311.5v91.3a18.6 18.6 0 0 0 3.5 10.86L-460 520m-80-111.2L-620 520m0-173.76h160" stroke="#3a414a" fill="none"/><path d="M-620 248a6 6 0 0 1 6-6h148a6 6 0 0 1 6 6v288a6 6 0 0 1-6 6h-148a6 6 0 0 1-6-6z" fill="none"/><use xlink:href="#k" transform="matrix(1,0,0,1,-700,519.9860338408484) translate(128.26604938271606 17.95555555555555)"/><path d="M-80-126.07c0 33.13-35.82 60-80 60s-80-26.87-80-60c0-33.14 35.82-60 80-60s80 26.86 80 60z" stroke="#ff80df" fill="#4d9eff"/><use xlink:href="#l" transform="matrix(1,0,0,1,-240,-186.07388571060028) translate(7.654999999999996 63.15)"/><use xlink:href="#i" transform="matrix(1,0,0,1,-240,-186.07388571060028) translate(94.50500000000001 63.15)"/><use xlink:href="#g" transform="matrix(1,0,0,1,-240,-186.07388571060028) translate(119.50500000000001 63.15)"/><path d="M-80 20c0 33.14-35.82 60-80 60s-80-26.86-80-60 35.82-60 80-60 80 26.86 80 60z" stroke="#ff80df" fill="#4d9eff"/><use xlink:href="#m" transform="matrix(1,0,0,1,-240,-40) translate(19.455 51.9)"/><use xlink:href="#n" transform="matrix(1,0,0,1,-240,-40) translate(55.355 51.9)"/><use xlink:href="#o" transform="matrix(1,0,0,1,-240,-40) translate(20.555 73.5)"/><use xlink:href="#p" transform="matrix(1,0,0,1,-240,-40) translate(54.555 73.5)"/><path d="M-80 214c0 33.14-35.82 60-80 60s-80-26.86-80-60c0-33.13 35.82-60 80-60s80 26.87 80 60z" stroke="#ff80df" fill="#4d9eff"/><use xlink:href="#q" transform="matrix(1,0,0,1,-240,154.00698307957575) translate(19.655000000000005 63.15)"/><use xlink:href="#r" transform="matrix(1,0,0,1,-240,154.00698307957575) translate(70.555 63.15)"/><use xlink:href="#s" transform="matrix(1,0,0,1,-240,154.00698307957575) translate(98.505 63.15)"/><path d="M-80 620c0 33.14-35.82 60-80 60s-80-26.86-80-60 35.82-60 80-60 80 26.86 80 60z" stroke="#ff80df" fill="#4d9eff"/><use xlink:href="#t" transform="matrix(1,0,0,1,-240,560) translate(40.58 51.9)"/><use xlink:href="#u" transform="matrix(1,0,0,1,-240,560) translate(96.48 51.9)"/><use xlink:href="#v" transform="matrix(1,0,0,1,-240,560) translate(37.55499999999999 73.5)"/><path d="M-60 389.17c0 33.13-35.82 60-80 60s-80-26.87-80-60c0-33.14 35.82-60 80-60s80 26.86 80 60z" stroke="#ff80df" fill="#4d9eff"/><use xlink:href="#w" transform="matrix(1,0,0,1,-220,329.16827644370585) translate(43.08 51.9)"/><use xlink:href="#u" transform="matrix(1,0,0,1,-220,329.16827644370585) translate(93.98 51.9)"/><use xlink:href="#x" transform="matrix(1,0,0,1,-220,329.16827644370585) translate(37.105 73.5)"/><path d="M-540 241V36.37" stroke="#3a414a" fill="none"/><path d="M-539.52 241.52l-.48-.03-.48.02v-.55h.96z" stroke="#3a414a" stroke-width=".05" fill="#3a414a"/><path d="M-540 21.62l4.63 14.26h-9.26z" stroke="#3a414a" fill="#3a414a"/><path d="M840 240c0 53-62.68 96-140 96s-140-43-140-96 62.68-96 140-96 140 43 140 96z" stroke="#000" stroke-opacity="0" fill="#4d9eff"/><use xlink:href="#y" transform="matrix(1,0,0,1,560,144.00698307957572) translate(22.04203703703704 102.88888888888889)"/><path d="M-539-125.46h143a6 6 0 0 0 6-6V-254a6 6 0 0 1 6-6h143M-539-125.46h-3.5" stroke="#3a414a" fill="none"/><path d="M-240.5-260V-259.53h-.5v-.96h.5z" stroke="#3a414a" stroke-width=".05" fill="#3a414a"/><path d="M-539-125.46h298M-539-125.46h-3.5" stroke="#3a414a" fill="none"/><path d="M-240.5-125.68l.03.7h-.53v-.96h.5z" stroke="#3a414a" stroke-width=".05" fill="#3a414a"/><path d="M-539-125.46h143a6 6 0 0 1 6 6V14a6 6 0 0 0 6 6h143M-539-125.46h-3.5" stroke="#3a414a" fill="none"/><path d="M-240.5 20V20.47h-.5v-.96h.5z" stroke="#3a414a" stroke-width=".05" fill="#3a414a"/><path d="M-539 389.17h143a6 6 0 0 0 6-6V220a6 6 0 0 1 6-6h143M-539 389.17h-3.5" stroke="#3a414a" fill="none"/><path d="M-240.5 214V214.48h-.5v-.95h.5z" stroke="#3a414a" stroke-width=".05" fill="#3a414a"/><path d="M-539 389.17h318M-539 389.17h-3.5" stroke="#3a414a" fill="none"/><path d="M-220.5 389.16V389.64h-.5v-.95h.5z" stroke="#3a414a" stroke-width=".05" fill="#3a414a"/><path d="M520-220c0 33.14-35.82 60-80 60s-80-26.86-80-60 35.82-60 80-60 80 26.86 80 60z" stroke="#000" stroke-opacity="0" fill="#4d9eff"/><use xlink:href="#z" transform="matrix(1,0,0,1,360,-280) translate(27.705 51.9)"/><use xlink:href="#A" transform="matrix(1,0,0,1,360,-280) translate(102.305 51.9)"/><use xlink:href="#B" transform="matrix(1,0,0,1,360,-280) translate(42.529999999999994 73.5)"/><path d="M-539 389.17h143a6 6 0 0 1 6 6V614a6 6 0 0 0 6 6h143M-539 389.17h-3.5" stroke="#3a414a" fill="none"/><path d="M-240.5 620V620.47h-.5v-.96h.5z" stroke="#3a414a" stroke-width=".05" fill="#3a414a"/><path d="M200 361c0 22.63-31.34 41-70 41s-70-18.37-70-41c0-22.65 31.34-41 70-41s70 18.35 70 41z" stroke="#ff80df" fill="#4d9eff"/><use xlink:href="#C" transform="matrix(1,0,0,1,60,320) translate(29.054999999999993 34.9)"/><use xlink:href="#f" transform="matrix(1,0,0,1,60,320) translate(90.95500000000001 34.9)"/><use xlink:href="#D" transform="matrix(1,0,0,1,60,320) translate(39.55499999999999 56.5)"/><path d="M-59 389.17h53a6 6 0 0 0 6-6V367a6 6 0 0 1 6-6h37.12" stroke="#3a414a" fill="none"/><path d="M-59 389.64h-.52l.02-.46v-.5h.5z" stroke="#3a414a" stroke-width=".05" fill="#3a414a"/><path d="M57.88 361l-14.26 4.63v-9.27z" stroke="#3a414a" fill="#3a414a"/><path d="M-59 389.17h53a6 6 0 0 1 6 6V496a6 6 0 0 0 6 6h37.12" stroke="#3a414a" fill="none"/><path d="M-59 389.64h-.52l.02-.46v-.5h.5z" stroke="#3a414a" stroke-width=".05" fill="#3a414a"/><path d="M57.88 502l-14.26 4.62v-9.27z" stroke="#3a414a" fill="#3a414a"/><path d="M-77.5 620.48H-79v-.96h1.5zm4.98 0h-3v-.96h3zm5 0h-3v-.96h3zm4.98 0h-3v-.96h3zm4.98 0h-3v-.96h3zm5 0h-3v-.96h3zm4.98 0h-3v-.96h3zm5 0h-3v-.96h3zm4.97 0h-3v-.96h3zm4.98 0h-3v-.96h3zm5 0h-3v-.96h3zm4.97 0h-3v-.96h3zm5 0h-3v-.96h3zm4.98 0h-3v-.96h3zm5 0h-3v-.96h3zm4.97 0h-3v-.96h3zm5 0h-3v-.96h3zm4.98 0h-3v-.96h3zm4.98 0h-3v-.96h3zm5 0h-3v-.96h3zm4.98 0h-3v-.96h3zm5 0h-3v-.96h3zm4.97 0h-2.98v-.96h3zm5 0h-3v-.96h3zm5 0h-3v-.96h3zm4.97 0h-3v-.96h3zm5 0h-3v-.96h3zm4.98 0h-3v-.96h3zm4.98 0h-3v-.96h3zm5 0h-3v-.96h3zm4.98 0h-2.98v-.96h3zm5 0h-3v-.96h3zm4.98 0h-3v-.96h3zm5 0h-3v-.96h3zm4.98 0h-3v-.96h3zm4.98 0h-3v-.96h3zm5 0h-3v-.96h3zm4.98 0h-3v-.96h3zm5 0h-3v-.96h3zm4.97 0h-3v-.96h3zm4.98 0h-3v-.96h3zm5 0h-3v-.96h3zm4.97 0h-3v-.96h3zm5 0h-3v-.96h3zm4.98 0h-3v-.96h3zm4.98 0h-2.98v-.96h3zm5 0h-3v-.96h3zm5 0h-3v-.96h3zm4.98 0h-3v-.96h3zm4.98 0h-3v-.96h3zm5 0h-3v-.96h3zm4.98 0h-3v-.96h3zm4.98 0h-3v-.96h3zm5 0h-3v-.96h3zm4.98 0h-3v-.96h3zm5 0h-3v-.96h3zm4.97 0h-3v-.96h3zm5 0h-3v-.96h3zm4.98 0h-3v-.96h3zm5 0h-3v-.96h3zm4.97 0h-3v-.96h3zm5 0h-3v-.96h3zm4.98 0h-3v-.96h3zm4.98 0h-3v-.96h3zm5 0h-3v-.96h3zm4.98 0h-3v-.96h3zm5 0h-3v-.96h3zm4.97 0h-3v-.96h3zm5 0h-3v-.96h3zm4.98 0h-3v-.96h3zm5 0h-3v-.96h3zm4.98 0h-3v-.96h3zm5 0h-3v-.96h3zm4.97 0h-3v-.96h3zm5 0h-3v-.96h3zm4.98 0h-3v-.96h3zm5 0h-3v-.96h3zm4.97 0h-3v-.96h3zm5 0h-3v-.96h3zm4.98 0h-3v-.96h3zm4.98 0h-3v-.96h3zm5 0h-3v-.96h3zm4.98 0h-3v-.96h3zm5 0h-3v-.96h3zm4.97 0h-2.98v-.96h3zm5 0h-3v-.96h3zm5 0h-3v-.96h3zm4.97 0h-3v-.96h3zm5 0h-3v-.96h3zm4.98 0h-3v-.96h3zm4.98 0h-3v-.96h3zm5 0h-3v-.96h3zm4.98 0h-2.98v-.96h3zm5 0h-3v-.96h3zm4.98 0h-3v-.96h3zm5 0h-3v-.96h3zm4.2 0h-2.22v-.96h2.22zm110.5 0h-3v-.96h3zm4.98 0h-3v-.96h3zm5 0h-3v-.96h3zm4.97 0h-3v-.96h3zm5 0h-3v-.96h3zm4.98 0h-2.98v-.96h3zm5 0h-3v-.96h3zm4.98 0h-3v-.96h3zm5 0h-3v-.96h3zm4.98 0h-3v-.96h3zm5 0h-3v-.96h3zm4.97 0h-3v-.96h3zm5 0h-3v-.96h3zm4.98 0h-3v-.96h3zm5 0h-3v-.96h3zm4.98 0h-3v-.96h3zm5 0h-3v-.96h3zm4.97 0h-3v-.96h3zm5 0h-3v-.96h3zm4.98 0h-3v-.96h3zm5 0h-3v-.96h3zm4.97 0h-3v-.96h3zm5 0h-3v-.96h3zm4.98 0h-3v-.96h3zm4.98 0h-3v-.96h3zm5 0h-3v-.96h3zm4.98 0h-3v-.96h3zm5 0h-3v-.96h3zm4.97 0h-2.98v-.96h3zm5 0h-3v-.96h3zm5 0h-3v-.96h3zm4.97 0h-3v-.96h3zm5 0h-3v-.96h3zm4.98 0h-3v-.96h3zm5 0h-3v-.96h3zm4.97 0h-3v-.96h3zm5 0h-3v-.96h3zm5-.2l-.5.12-1 .08h-1.52v-.96h1.48l.88-.06.42-.1zm-189.53.2h-1.97v-.96H506zm193.5-3.1l-.26.43-.66.78-.77.66-.43.26-.5-.8.38-.23.66-.56.57-.65.23-.37zm.98-3.36l-.08 1-.12.5-.93-.24.1-.42.07-.88v-1.5h.96zm0-3.54h-.96v-3.02h.96zm0-5.03h-.96v-3.02h.96zm0-5.03h-.96v-3.02h.96zm0-5.03h-.96v-3.03h.96zm0-5.05h-.96v-3h.96zm0-5.03h-.96v-3.02h.96zm0-5.03h-.96v-3.03h.96zm0-5.04h-.96v-3.02h.96zm0-5.03h-.96v-3.02h.96zm0-5.03h-.96v-3.02h.96zm0-5.03h-.96v-3.02h.96zm0-5.03h-.96v-3.02h.96zm0-5.04h-.96v-3h.96zm0-5.03h-.96v-3.02h.96zm0-5.03h-.96v-3.02h.96zm0-5.03h-.96v-3h.96zm0-5.02h-.96v-3.02h.96zm0-5.03h-.96v-3.02h.96zm0-5.03h-.96v-3.02h.96zm0-5.03h-.96v-3.03h.96zm0-5.05h-.96v-3.02h.96zm0-5.03h-.96v-3.02h.96zm0-5.03h-.96v-3.03h.96zm0-5.04h-.96v-3.02h.96zm0-5.03h-.96v-3.02h.96zm0-5.03h-.96v-3.02h.96zm0-5.03h-.96v-3.02h.96zm0-5.04h-.96v-3h.96zm0-5.03h-.96v-3.02h.96zm0-5.03h-.96v-3.02h.96zm0-5.03h-.96v-3.02h.96zm0-5.03h-.96v-3h.96zm0-5.02h-.96v-3.02h.96zm0-5.03h-.96v-3.02h.96zm0-5.03h-.96v-3.02h.96zm0-5.03h-.96v-3.03h.96zm0-5.05h-.96v-3h.96zm0-5.03h-.96v-3h.96zm0-5.03h-.96v-3.03h.96zm0-5.04h-.96v-3.02h.96zm0-5.03h-.96v-3.02h.96zm0-5.03h-.96v-3.02h.96zm0-5.03h-.96v-3.02h.96zm0-5.03h-.96v-3.02h.96zm0-5.03h-.96v-3h.96zm0-5.03h-.96v-3h.96zm0-5.03h-.96v-3.02h.96zm0-5.03h-.96v-3h.96zm0-5.02h-.96v-3.02h.96zm0-5.03h-.96v-3.02h.96zm0-5.03h-.96v-3.02h.96zm0-5.03h-.96v-1.52h.96z" stroke="#3a414a" stroke-width=".05" fill="#3a414a"/><path d="M-79 620.48h-.52l.02-.47v-.4l.5-.08z" fill="#3a414a"/><path stroke="#3a414a" stroke-width=".05" fill="#3a414a"/><path d="M704.63 351.88h-9.26L700 337.6z" fill="#3a414a"/><path d="M705.3 352.35h-10.6l5.3-16.28zm-9.28-.95h7.96L700 339.15z" stroke="#3a414a" stroke-width=".05" fill="#3a414a"/><use xlink:href="#E" transform="matrix(1,0,0,1,400.47571582741836,609.3333333333334) translate(0 14.222222222222223)"/><path d="M200 502c0 22.08-31.34 40-70 40s-70-17.92-70-40c0-22.1 31.34-40 70-40s70 17.9 70 40z" stroke="#ff80df" fill="#4d9eff"/><use xlink:href="#F" transform="matrix(1,0,0,1,60,461.98603384084845) translate(19.529999999999994 31.9)"/><use xlink:href="#f" transform="matrix(1,0,0,1,60,461.98603384084845) translate(100.48 31.9)"/><use xlink:href="#D" transform="matrix(1,0,0,1,60,461.98603384084845) translate(39.55499999999999 53.5)"/><path d="M201 501.98h1.5m2 0l3-.02m2 0l3-.03m2 0l3-.02m2 0h3m2-.02h3m2-.02h3m1.98-.02h3m2-.02h3m2-.02l3-.02m2 0l3-.02m2 0l3-.02m2 0l3-.02m2 0l3-.02m2 0l3-.02m1.98 0l3-.03m2 0l3-.02m2 0l3-.02m2 0h3m2-.02h3m2-.02h3m2-.02l3-.02m2 0l3-.02m2 0l2.98-.02m2 0l3-.02m2 0l3-.02m2 0l3-.02m2 0l3-.03m2 0l3-.03m2 0l3-.02m2 0l3-.02m2 0l3-.02m1.98 0h3m2-.02h3m2-.02l3-.02m2 0l3-.02m2 0l3-.02m2 0l3-.02m2 0l3-.02m2 0l3-.03m1.98 0l3-.02m2 0h3m2-.02h3m2-.02h3m2-.02h3m2-.02h3m2-.02l3-.02m2 0l3-.02m2 0l2.98-.02m2 0l3-.02m2 0l3-.02m2 0l3-.02m2 0l3-.03m2 0l3-.02m2 0l3-.02m2 0h3m2-.02h3m1.98-.02h3m2-.02h3m2-.02l3-.02m2 0l3-.02m2 0l3-.02m2 0l3-.02m2 0l3-.02m2 0l3-.02m2 0l2.98-.03m2 0l3-.02m2 0l3-.02m2 0l3-.02m2 0h3m2-.02l3-.02m2 0l3-.02m2 0l3-.02m2 0l2.98-.02m2 0l3-.02m2 0l3-.02m2 0l3-.02m2 0l3-.03m2 0h3m2-.02h3m2-.02h3m2-.02h2.98m2-.02h3m2-.02h3m2-.02l3-.02m2 0l3-.02m2 0l3-.02m2 0l3-.02m2 0l3-.02m2 0l3-.02m1.98 0l3-.03m2 0l3-.02m2 0h.72l.07-2.28m.06-2l.1-3m.06-2l.1-3m.05-2l.1-2.98m.05-2l.1-3m.06-2l.1-3m.06-2l.1-3m.05-2l.1-2.98m.06-2l.1-3m.06-2l.08-3m.06-2l.1-3m.06-2l.1-2.98m.06-2l.1-3m.05-2l.1-3m.07-2l.1-3m.06-2l.1-2.98m.06-2l.08-3m.06-2l.1-3m.06-2l.1-3m.06-2l.1-3m.05-1.98l.1-3m.07-2l.1-3m.05-2l.1-3m.06-2l.1-3m.06-1.98l.1-3m.06-2l.1-3m.05-2l.1-3m.06-2l.1-3m.07-1.98l.1-3m.05-2l.1-3m.06-2l.05-1.5" stroke="#3a414a" fill="none"/><path d="M201 502.46h-.52l.02-.47-.02-.5h.53z" stroke="#3a414a" stroke-width=".05" fill="#3a414a"/><path d="M665.2 334.6l4.17 14.4-9.26-.28z" stroke="#3a414a" fill="#3a414a"/><use xlink:href="#E" transform="matrix(1,0,0,1,456.0356636293745,504.660051096269) translate(0 14.222222222222223)"/><path d="M201 361.4h1.48m2 0l3 .02m2 0l2.98.03m2 0l3 .03m1.98 0l3 .02m2 .02h3m1.98.02l3 .02m2 0l2.98.03m2 0l3 .02m2 0l2.98.02m2 0l3 .03m1.98 0l3 .03m2 0l3 .03m1.98 0l3 .02m2 0l2.98.03m2 0l3 .03m2 .02l2.98.02m2 0l3 .02m2 0l2.98.03m2 0l3 .02m1.98 0l3 .03m2 0l2.98.03m2 0l3 .02m2 0l2.98.03m2 0l3 .03m1.98 0l3 .02m2 .02h3m1.98.02l3 .02m2 0l2.98.03m2 0l3 .03m2 0l2.98.02m2 0l3 .03m2 0l2.98.03m2 0l3 .03m1.98.02h3m2 .03h2.98m2 .02l3 .02m2 0l2.98.02m2 0l3 .02m2 0l2.98.03m2 0l3 .03m1.98 0l3 .03m2 0l2.98.03m2 0l3 .02m2 0l2.98.03m2 .02l3 .02m1.98 0l3 .03m2 0l3 .02m1.98 0l3 .02m2 0l2.98.03m2 0l3 .03m2 0l2.98.02m2 0l3 .03m2 0l2.98.03m2 0l3 .03m1.98 0h3m2 .03h2.98m2 .02l3 .02m2 0l2.98.03m2 0l3 .02m2 .02h2.98m2 .02l3 .02m1.98 0l3 .03m2 .02h3m1.98.03h3m2 .02l2.98.02m2 0l3 .02m2 0l2.98.03m2 0l3 .02m1.98 0l3 .03m2 0l2.98.03m2 0l3 .03m2 0l2.98.02m2 0l3 .03m2 .02l2.98.02m2 0l3 .03m1.98 0l3 .02m2 0l3 .02m1.98 0l3 .03m2 0l2.98.03m2 0l3 .03m2 .02h2.98m2 .02l3 .02m1.98 0l3 .03m2 0h3m1.06-.9v-3m0-2v-2.98m0-2v-3m0-2v-2.98m0-2v-3m0-1.98v-1.5" stroke="#3a414a" fill="none"/><path d="M201 360.9v.96h-.53l.03-.87v-.1z" stroke="#3a414a" stroke-width=".05" fill="#3a414a"/><path d="M622.6 321.6l4.63 14.26h-9.27z" stroke="#3a414a" fill="#3a414a"/><use xlink:href="#E" transform="matrix(1,0,0,1,412.3688469459966,366.8474348053471) translate(0 14.222222222222223)"/><path d="M299.65 215.23h-3v-.95h3zm5 0h-3v-.95h3zm5.02 0h-3v-.95h3zm5 0h-3v-.95h3zm5 0h-3v-.95h3zm5.02 0h-3.02v-.95h3zm5 0h-3v-.95h3zm5 0h-3v-.95h3zm5 0h-3v-.95h3zm5.02 0h-3v-.95h3zm5 0h-3v-.95h3zm5 0h-3v-.95h3zm5.02 0h-3v-.95h3zm5 0h-3v-.95h3zm5 0h-3v-.95h3zm5.02 0h-3v-.95h3zm5 0h-3v-.95h3zm5 0h-3v-.95h3zm5.02 0h-3v-.95h3zm5 0h-3v-.95h3zm5.02 0h-3v-.95h3zm5 0h-3v-.95h3zm5 0h-3v-.95h3zm5.02 0h-3v-.95h3zm5 0h-3v-.95h3zm5 0h-3v-.95h3zm5.02 0h-3v-.95h3zm5 0h-3v-.95h3zm5 0h-3v-.95h3zm5.02 0h-3v-.95h3zm5 0h-3v-.95h3zm5 0h-3v-.95h3zm5.02 0h-3v-.95h3zm5 0h-3v-.95h3zm5.02 0h-3v-.95h3zm5 0h-3v-.95h3zm5 0h-3v-.95h3zm5.02 0h-3v-.95h3zm5 0h-3v-.95h3zm5 0h-3v-.95h3zm5.02 0h-3v-.95h3zm5 0h-3v-.95h3zm5 0h-3v-.95h3zm5.02 0h-3v-.95h3zm5 0h-3v-.95h3zm5.02 0h-3v-.95h3zm5 0h-3v-.95h3zm5 0h-3v-.95h3zm5.02 0h-3v-.95h3zm5 0h-3v-.95h3zm3.5 0H547v-.95h1.5zm-253.86 0h-.17v-.95h.17zm-372.13-.75H-79v-.95h1.5zm5.03 0h-3.02v-.95h3.03zm5.02 0h-3.02v-.95h3.02zm5.02 0h-3v-.95h3zm5.02 0h-3.02v-.95h3zm5 0h-3v-.95h3zm5.03 0h-3v-.95h3zm5.02 0h-3v-.95h3zm5.02 0h-3v-.95h3zm5.02 0h-3.02v-.95h3zm5 0h-3v-.95h3zm5.03 0h-3v-.95h3zm5.02 0h-3v-.95h3zm5.03 0h-3.02v-.95h3.02zm5.02 0h-3.02v-.95h3.02zm5.02 0H-5.2v-.95h3.02zm5.02 0h-3v-.95h3zm5.02 0H4.84v-.95h3.02zm5.02 0h-3v-.95h3zm5.02 0h-3v-.95h3zm5.02 0h-3v-.95h3zm5.02 0h-3v-.95h3zm5.02 0h-3v-.95h3zm5.02 0h-3v-.95h3zm5.02 0h-3v-.95h3zm5.02 0h-3v-.95h3zm5.02 0h-3v-.95h3zm5.02 0h-3v-.95h3zm5.02 0h-3v-.95h3zm5.03 0h-3v-.95h3zm5.03 0H70.1v-.95h3.03zm5.02 0h-3.02v-.95h3.02zm5.02 0h-3v-.95h3zm5.02 0h-3.02v-.95h3zm5 0h-3v-.95h3zm5.03 0h-3v-.95h3zm5.02 0h-3v-.95h3zm5.02 0h-3v-.95h3zm5.02 0h-3.02v-.95h3zm5 0h-3v-.95h3zm5.03 0h-3v-.95h3zm5.02 0h-3v-.95h3zm5.03 0h-3.02v-.95h3zm5.02 0h-3.02v-.95h3.02zm5.02 0h-3.02v-.95h3.02zm5.02 0h-3v-.95h3zm5.02 0h-3.02v-.95h3.02zm5.02 0h-3v-.95h3zm5.02 0h-3v-.95h3zm5.02 0h-3v-.95h3zm5.02 0h-3v-.95h3zm5.02 0h-3v-.95h3zm5.02 0h-3v-.95h3zm5.02 0h-3v-.95h3zm2.32 0h-.3v-.95h.3z" stroke="#3a414a" stroke-width=".05" fill="#3a414a"/><path d="M-79 214.48h-.52l.02-.47v-.38l.5-.1z" fill="#3a414a"/><path stroke="#3a414a" stroke-width=".05" fill="#3a414a"/><path d="M563.27 214.75L549 219.4v-9.28z" fill="#3a414a"/><path d="M564.8 214.75l-16.26 5.3v-10.6zm-15.3 3.98l12.24-3.98-12.25-3.98z" stroke="#3a414a" stroke-width=".05" fill="#3a414a"/><use xlink:href="#E" transform="matrix(1,0,0,1,190.91892158173533,203.71330084442394) translate(0 14.222222222222223)"/><path d="M-79-126.07h1.5m2 0h2.98m2 0h3m2 0h2.98m2 0h3m1.98 0h3m2 0h2.98m2 0h3m2 0h2.98m2 0h3m2 0h2.98m2 0h3m1.98 0h3m2 0h2.98m2 0h3m2 0h2.98m2 0h3m1.98 0h3m2 0h2.98m2 0h3m2 0h2.98m2 0h3m1.98 0h3m2 0h2.98m2 0h3m2 0h2.98m2 0h3m1.98 0h3m2 0h2.98m2 0h3m2 0h2.98m2 0h3m1.98 0h3m2 0h3m1.98 0h3m2 0h2.98m2 0h.92v-2.07m0-2v-3m0-2v-2.98m0-2v-3m0-1.98v-3m0-2v-3m0-1.98v-3m0-2v-2.98m0-2v-3m0-1.98v-3m0-2v-3m0-1.98v-3m0-2V-188m0-2v-3m0-2v-2.98m0-2v-3m0-1.98v-3m0-2v-2.98m0-2v-3m0-2v-2.98m0-2v-3m0-1.98v-3m0-2v-2.98m0-2v-3m0-2v-.05h2.94m2 0h2.98m2 0h3m2 0h2.98m2 0h3m1.98 0h3m2 0h2.98m2 0h3m2 0h2.98m2 0h3m1.98 0h3m2 0h3m1.98 0h3m2 0h2.98m2 0h3m1.98 0h3m2 0h3m1.98 0h3m2 0h2.98m2 0h3m2 0h2.98m2 0h3m1.98 0h3m2 0h2.98m2 0h3m2 0h2.98m2 0h3m1.98 0h3m2 0h2.98m2 0h3m2 0h2.98m2 0h3m1.98 0h3m2 0h2.98m2 0h3m2 0h2.98m2 0h3m1.98 0h3m2 0h3m1.98 0h3m2 0h2.98m2 0h3m2 0h2.98m2 0h3m1.98 0h3m2 0h2.98m2 0h3m2 0h2.98m2 0h3m1.98 0h3m2 0h1.5" stroke="#3a414a" fill="none"/><path d="M-79-125.6h-.52l.02-.47V-126.55h.5z" stroke="#3a414a" stroke-width=".05" fill="#3a414a"/><path d="M365.6-244.93l-14.25 4.64v-9.26z" stroke="#3a414a" fill="#3a414a"/><g><use xlink:href="#E" transform="matrix(1,0,0,1,89.89639519023916,-270.2587762846888) translate(0 14.222222222222223)"/></g><path d="M179.5-99.53h-1.48v-.94h1.48zm-3.45 0h-2.96v-.94h2.95zm-4.93 0h-2.95v-.94h2.95zm-4.92 0h-2.96v-.94h2.96zm-4.93 0h-2.96v-.94h2.97zm-4.93 0h-2.95v-.94h2.94zm-4.92 0h-2.96v-.94h2.96zm-4.93 0h-2.97v-.94h2.96zm-4.94 0h-2.95v-.94h2.96zm-4.93 0h-2.95v-.94h2.95zm-4.92 0h-2.95v-.94h2.96zm-4.92 0h-2.95v-.94h2.95zm-4.92 0h-2.96v-.94h2.95zm-4.93 0h-2.96v-.94h2.96zm-4.93 0h-2.95v-.94H112zm-4.93 0h-2.95v-.94h2.95zm-4.92 0H99.2v-.94h2.95zm-4.93 0h-2.96v-.94h2.96zm-4.93 0h-2.96v-.94h2.95zm-4.93 0H84.4v-.94h2.97zM-21-99.7h-.44v-.95h.45zm-2.48 0h-3.05v-.95h3.05zm-5.1 0h-3.05v-.95h3.06zm-5.08 0h-3.06v-.95h3.06zm-5.1 0h-3.05v-.95h3.04zm-5.1 0h-3.05v-.95h3.05zm-5.08 0H-52v-.95h3.06zm-5.1 0h-3.05v-.95h3.07zm-5.1 0h-3.04v-.95h3.05zm-5.08 0h-3.06v-.95h3.06zm-5.1 0h-1.52v-.95h1.53z" stroke="#3a414a" stroke-width=".05" fill="#3a414a"/><path d="M180-100v.38l-.5.1v-.95h.5z" fill="#3a414a"/><path stroke="#3a414a" stroke-width=".05" fill="#3a414a"/><path d="M-71.34-95.54l-14.27-4.63 14.26-4.64z" fill="#3a414a"/><path d="M-70.87-94.88l-16.28-5.3 16.28-5.28zm-13.2-5.3l12.25 4v-7.97z" stroke="#3a414a" stroke-width=".05" fill="#3a414a"/><g><use xlink:href="#E" transform="matrix(1,0,0,1,-20.990551224727916,-110.83786073201186) translate(0 14.222222222222223)"/></g><path d="M340.5-100h1.5m2 0h3.02m2 0h3.02m2 0h3.02m2 0h3.02m2 0h3.02m2 0h3m2.02 0h3m2.02 0h3m2.02 0h3m2.02 0h3m2 0h3.02m2 0h3.02m2 0h3.02m2 0h3.02m2 0h3.02m2 0h3.02m2 0h3m2.02 0h3m2.02 0h3m2.02 0h3m2.02 0h3m2 0h3.02m2 0h3.02m2 0h3.02m2 0h3.02m2 0h3.02m2 0h3m2.02 0h3m2.02 0h3m2.02 0h3m2.02 0h3m2 0h3.03m2 0h3m2 0h3.02m2 0h3.02m2 0h3.02m2 0h3.02m2 0h3.02m2 0h3m2.02 0h3m2.02 0h3m2.02 0h3m2 0h3.03m2 0h3m2 0h3.02m2 0h3.02m2 0h3.02m2 0h3.02m2 0h3m2.02 0h3m2.02 0h3m2.02 0h3m2.02 0h3m2 0H613m2 0H618m2 0h3.02m2 0h3.02m2 0h3.02m2 0h3.02m2 0h3m2.02 0h3m2.02 0h3m2.02 0h3m2.02 0h3m2 0h3.02m2 0h3.02m2 0h3.02m2 0h3.02m2 0h3.02m2 0h3.02m2 0h3m1.72.3v3m0 2.02v3m0 2.02v3m0 2.02v3m0 2v3.03m0 2v3m0 2v3.02m0 2v3.02m0 2v3.02m0 2v3.02m0 2v3m0 2.02v3m0 2.02v3m0 2.02v3m0 2.02v3m0 2v3.02m0 2v3.02m0 2v3.02m0 2v3.02m0 2v3.02m0 2v3m0 2.02v3m0 2.02v3m0 2.02v3m0 2.02v3m0 2.02v3m0 2v3.02m0 2v3.02m0 2v3.02m0 2v3.02m0 2v3.02m0 2v3m0 2.02v3m0 2.02v3m0 2.02v3m0 2.02v3m0 2v3.03m0 2v3m0 2.02v3m0 2v3.02m0 2v3.02m0 2v3.02m0 2v3m0 2.02v3m0 2.02v3m0 2.02v1.5" stroke="#3a414a" fill="none"/><path d="M340.5-99.53h-.5v-.95h.5z" stroke="#3a414a" stroke-width=".05" fill="#3a414a"/><path d="M700 142.4l-4.63-14.28h9.26z" stroke="#3a414a" fill="#3a414a"/><g><use xlink:href="#E" transform="matrix(1,0,0,1,584.0229370363049,-125.33333333333334) translate(0 14.222222222222223)"/></g><path d="M743.33 132.23h-.96v-1.5h.96zm0-3.5h-.96v-3.03h.96zm0-5.03h-.96v-3h.96zm0-5.02h-.96v-3h.96zm0-5.02h-.96v-3h.96zm0-5.02h-.96v-3h.96zm0-5h-.96v-3.03l.96.02zm0-5.03h-.96v-3h.96zm0-5h-.96v-3.02h.96zm0-5.03h-.96v-3h.96zm0-5h-.96v-3.03h.96zm0-5.03h-.96v-3h.96zm0-5.02h-.96v-3h.96zm0-5.02h-.96v-3h.96zm0-5.02h-.96v-3h.96zm0-5h-.96v-3.02h.96zm0-5.03h-.96v-3h.96zm0-5.02h-.96v-3h.96zm0-5.02h-.96v-3h.96zm0-5h-.96v-3.02h.96zm0-5.02h-.96v-3h.96zm0-5.02h-.96v-3h.96zm0-5.02h-.96v-3h.96zm0-5.02h-.96v-3h.96zm0-5h-.96v-3.03h.96zm0-5.03h-.96V5.27h.96zm0-5.03h-.96v-3h.96zm0-5.02h-.96v-3h.96zm0-5.02h-.96v-3h.96zm0-5h-.96v-3.02h.96zm0-5.03h-.96v-3h.96zm0-5.02h-.96v-3h.96zm0-5.02h-.96v-3h.96zm0-5h-.96v-3.03h.96zm0-5.03h-.96v-3h.96zm0-5.02h-.96v-3h.96zm0-5h-.96v-3.02h.96zm0-5.03h-.96v-3h.96zm0-5h-.96v-3.02h.96zm0-5.03h-.96v-3h.96zm0-5.02h-.96v-3h.96zm0-5.02h-.96v-3h.96zm0-5h-.96v-3.03h.96zm0-5.03h-.96v-3h.96zm0-5.02h-.96v-3h.96zm0-5.02h-.96v-3h.96zm0-5.02h-.96v-3h.96zm0-5h-.96v-3h.96zm0-5.02h-.96v-3h.96zm0-5.02h-.96v-3h.96zm0-5.02h-.96v-3h.96zm0-5.02h-.96v-3h.96zm0-5h-.96v-3.02h.96zm0-5.03h-.96v-3.02h.96zm0-25.6h-.96v-2.5h.96zm0-4.52h-.96v-3h.96zm0-5.02h-.96v-3h.96zm0-5h-.96v-3.02h.96zm0-5.03h-.96v-3h.96zm0-5.02h-.96v-3h.96zm0-5h-.96v-3.02h.96zm0-5.02h-.96v-3h.96zm0-5.02h-.96v-3h.96zm0-5.02h-.96v-3h.96zm0-5.02h-.96v-3h.96zm-.08-7.53l.08.98v1.53h-.96v-1.48l-.06-.88-.1-.42.93-.23zm-2.6-4.24l.78.66.66.77.25.43-.8.5-.23-.38-.56-.66-.66-.57-.37-.22.5-.8zm-2.8-1.16l.5.12-.2.93-.44-.1-.87-.08h-1.5v-.94h1.54zm-215.84.88h-1.5v-.95h1.5zm5.04 0h-3.02v-.95h3.02zm5.03 0h-3.02v-.95h3.02zm5.03 0h-3v-.95h3zm5.03 0h-3v-.95h3zm5.04 0h-3.02v-.95h3.02zm5.03 0h-3.02v-.95h3.02zm5.03 0h-3.02v-.95h3.03zm5.03 0h-3.02v-.95h3.02zm5.03 0h-3.03v-.95h3.02zm5.02 0h-3.02v-.95h3.02zm5.03 0h-3v-.95h3zm5.04 0h-3.03v-.95h3.02zm5.02 0h-3.02v-.95h3.02zm5.03 0h-3.02v-.95h3.02zm5.03 0h-3.02v-.95h3.02zm5.03 0h-3v-.95h3zm5.04 0h-3.02v-.95h3.02zm5.04 0h-3.02v-.95h3.02zm5.03 0h-3v-.95h3zm5.04 0h-3.02v-.95h3.02zm5.03 0h-3.02v-.95h3.02zm5.03 0h-3.02v-.95h3.02zm5.03 0h-3.02v-.95h3.03zm5.03 0h-3.02v-.95h3.02zm5.03 0h-3.02v-.95h3zm5.03 0h-3.02v-.95h3.03zm5.03 0h-3.02v-.95h3.02zm5.03 0h-3.03v-.95h3.02zm5.02 0h-3.02v-.95h3.02zm5.03 0h-3.02v-.95h3.02zm5.03 0h-3.02v-.95h3.02zm5.03 0h-3v-.95h3zm5.05 0h-3.02v-.95h3.02zm5.03 0h-3.02v-.95h3.02zm5.03 0h-3v-.95h3zm5.04 0h-3.02v-.95h3.02zm5.03 0h-3.02v-.95h3.02zm5.03 0h-3.02v-.95h3.02zm5.03 0h-3v-.95h3zm5.03 0h-3v-.95h3zm5.04 0h-3.02v-.95h3.02zm5.03 0h-3.02v-.95h3.03z" stroke="#3a414a" stroke-width=".05" fill="#3a414a"/><path d="M520.5-219.53h-.5v-.85l.5-.1z" fill="#3a414a"/><path stroke="#3a414a" stroke-width=".05" fill="#3a414a"/><path d="M742.85 147l-4.63-14.27h9.27z" fill="#3a414a"/><path d="M742.85 148.53l-5.3-16.28h10.6zm-3.98-15.33l3.98 12.26 3.98-12.26z" stroke="#3a414a" stroke-width=".05" fill="#3a414a"/><g><use xlink:href="#E" transform="matrix(1,0,0,1,691.0724793687012,-157.78630907243317) translate(0 14.222222222222223)"/></g><path d="M-79 20h1.5m2 0h3m2 0h3m2 0h3m2 0h3m2 0h3m2 0h3m2 0h3m2 0h3m2 0h3m2 0h3m2 0h3m2 0h3m2 0h3m2 0h3m2 0h3m2 0h3m2 0h3m2 0h3m2 0h3m2 0h3m2 0h3m2 0h3m2 0h3m2 0h3m2 0h2.98m2 0h3m2 0h3m2 0h3m2 0h3m2 0h3m2 0h3m2 0h3m2 0h3m2 0h3m2 0h3m2 0h3m2 0h3m2 0h3m2 0h3m2 0h3m2 0h3m2 0h3m2 0h3m2 0h3m2 0h3m2 0h3m2 0h3m2 0h3m2 0h3m2 0h3m2 0h3m2 0h3m2 0h3m2 0h3m2 0h3m2 0h3m2 0h3m2 0h3m2 0h3m2 0h3m2 0h2.98m2 0h3m2 0h3m2 0h3m2 0h3m2 0h3m2 0h3m2 0h3m2 0h3m2 0h3m2 0h3m2 0h3m2 0h3m2 0h3m2 0h3m2 0h3m2 0h3m2 0h3m2 0h3m2 0h3m2 0h3m2 0h3m2 0h3m2 0h3m2 0h3m2 0h3m2 0h3m2 0h3m2 0h3m2 0h3m2 0h3m2 0h3m2 0h3m2 0h3m2 0h2.98m2 0h3m2 0h3m2 0h3m2 0h3m2 0h3m2 0h3m2 0h3m2 0h3m2 0h3m2 0h3m2 0h3m2 0h3m2 0h3m2 0h3m2 0h3m2 0h3m2 0h3m2 0h3m2 0h3m2 0h3m2 0h3m2 0h3m2 0h3m2 0h3m2 0h3m2 0h3m2 0h3m2 0h3m2 0h3m2 0h3m2 0h3m2 0h3m2 0h2.98m2 0h3m2 0h3m2 0h3m2 0h3m2 0h3m2 0h3m2 0h3m2 0h3m2 0h3m2 0h2.4v.6m0 2v3m0 2v3m0 2v3m0 2v3m0 2v3m0 2v3m0 2v3m0 2v3m0 2v3m0 2v3m0 2v3m0 2v3m0 2v3m0 2v3m0 2v3m0 2v3m0 2v3m0 2v3m0 2v3m0 2v3m0 2v3m0 2v3m0 2v3m0 2v3m0 2v3m0 2v1.5" stroke="#3a414a" fill="none"/><path d="M-79 20.48h-.52l.02-.47V19.53h.5z" stroke="#3a414a" stroke-width=".05" fill="#3a414a"/><path d="M611.8 163.86l-4.62-14.27h9.27z" stroke="#3a414a" fill="#3a414a"/><g><use xlink:href="#E" transform="matrix(1,0,0,1,318.53463642186847,-5.333333333333336) translate(0 14.222222222222223)"/></g><defs><path d="M169-182c-1-43-94-46-97-3 18 66 151 10 154 114 3 95-165 93-204 36-6-8-10-19-12-30l50-8c3 46 112 56 116 5-17-69-150-10-154-114-4-87 153-88 188-35 5 8 8 18 10 28" id="G"/><path d="M123 10C108 53 80 86 19 72V37c35 8 53-11 59-39L3-190h52l48 148c12-52 28-100 44-148h51" id="H"/><path d="M137-138c1-29-70-34-71-4 15 46 118 7 119 86 1 83-164 76-172 9l43-7c4 19 20 25 44 25 33 8 57-30 24-41C81-84 22-81 20-136c-2-80 154-74 161-7" id="I"/><path d="M115-3C79 11 28 4 28-45v-112H4v-33h27l15-45h31v45h36v33H77v99c-1 23 16 31 38 25v30" id="J"/><path d="M185-48c-13 30-37 53-82 52C43 2 14-33 14-96s30-98 90-98c62 0 83 45 84 108H66c0 31 8 55 39 56 18 0 30-7 34-22zm-45-69c5-46-57-63-70-21-2 6-4 13-4 21h74" id="K"/><path d="M220-157c-53 9-28 100-34 157h-49v-107c1-27-5-49-29-50C55-147 81-57 75 0H25l-1-190h47c2 12-1 28 3 38 10-53 101-56 108 0 13-22 24-43 59-42 82 1 51 116 57 194h-49v-107c-1-25-5-48-29-50" id="L"/><g id="a"><use transform="matrix(0.08641975308641976,0,0,0.08641975308641976,0,0)" xlink:href="#G"/><use transform="matrix(0.08641975308641976,0,0,0.08641975308641976,20.740740740740744,0)" xlink:href="#H"/><use transform="matrix(0.08641975308641976,0,0,0.08641975308641976,38.0246913580247,0)" xlink:href="#I"/><use transform="matrix(0.08641975308641976,0,0,0.08641975308641976,55.308641975308646,0)" xlink:href="#J"/><use transform="matrix(0.08641975308641976,0,0,0.08641975308641976,65.5925925925926,0)" xlink:href="#K"/><use transform="matrix(0.08641975308641976,0,0,0.08641975308641976,82.87654320987654,0)" xlink:href="#L"/></g><path d="M88-194c31-1 46 15 58 34l-1-101h50l1 261h-48c-2-10 0-23-3-31C134-8 116 4 84 4 32 4 16-41 15-95c0-56 19-97 73-99zm17 164c33 0 40-30 41-66 1-37-9-64-41-64s-38 30-39 65c0 43 13 65 39 65" id="M"/><g id="b"><use transform="matrix(0.08641975308641976,0,0,0.08641975308641976,0,0)" xlink:href="#M"/><use transform="matrix(0.08641975308641976,0,0,0.08641975308641976,18.925925925925927,0)" xlink:href="#K"/></g><path d="M195-6C206 82 75 100 31 46c-4-6-6-13-8-21l49-6c3 16 16 24 34 25 40 0 42-37 40-79-11 22-30 35-61 35-53 0-70-43-70-97 0-56 18-96 73-97 30 0 46 14 59 34l2-30h47zm-90-29c32 0 41-27 41-63 0-35-9-62-40-62-32 0-39 29-40 63 0 36 9 62 39 62" id="N"/><path d="M25-224v-37h50v37H25zM25 0v-190h50V0H25" id="O"/><path d="M110-194c64 0 96 36 96 99 0 64-35 99-97 99-61 0-95-36-95-99 0-62 34-99 96-99zm-1 164c35 0 45-28 45-65 0-40-10-65-43-65-34 0-45 26-45 65 0 36 10 65 43 65" id="P"/><path d="M135-194c87-1 58 113 63 194h-50c-7-57 23-157-34-157-59 0-34 97-39 157H25l-1-190h47c2 12-1 28 3 38 12-26 28-41 61-42" id="Q"/><g id="c"><use transform="matrix(0.08641975308641976,0,0,0.08641975308641976,0,0)" xlink:href="#N"/><use transform="matrix(0.08641975308641976,0,0,0.08641975308641976,18.925925925925927,0)" xlink:href="#K"/><use transform="matrix(0.08641975308641976,0,0,0.08641975308641976,36.20987654320988,0)" xlink:href="#I"/><use transform="matrix(0.08641975308641976,0,0,0.08641975308641976,53.49382716049383,0)" xlink:href="#J"/><use transform="matrix(0.08641975308641976,0,0,0.08641975308641976,63.777777777777786,0)" xlink:href="#O"/><use transform="matrix(0.08641975308641976,0,0,0.08641975308641976,72.41975308641976,0)" xlink:href="#P"/><use transform="matrix(0.08641975308641976,0,0,0.08641975308641976,91.34567901234568,0)" xlink:href="#Q"/></g><path d="M1268-424c0 285-235 424-537 424H184v-1462c456 17 1047-96 1047 370 0 167-86 294-225 316v10c175 38 262 140 262 342zm-355-627c0-133-104-157-256-157H494v325h180c151-2 239-31 239-168zM696-256c158 0 250-52 250-199 0-121-87-182-260-182H494v381h202" id="R"/><path d="M479-1407c-1 99-61 150-166 150-111 0-166-50-166-150 0-99 55-149 166-149s166 50 166 149zM465 0H160v-1118h305V0" id="S"/><path d="M782-1139c292 0 422 259 422 578 0 185-39 328-116 429S907 20 774 20c-131 0-234-48-309-143h-21L393 0H160v-1556h305c-3 221 8 361-12 583h12c71-111 177-166 317-166zM465-596c-3 221 29 369 223 369 63 0 110-31 150-87 71-99 72-401-1-498-40-53-88-83-153-83-174 0-216 109-219 299" id="T"/><path d="M465 0H160v-1556h305V0" id="U"/><path d="M633-893c-183 0-230 133-230 332s48 336 232 336c183 0 229-137 229-336s-47-332-231-332zm4-246c347 5 535 225 539 578S978 25 631 20C283 15 96-208 92-561c-4-355 196-583 545-578" id="V"/><path d="M498-350c-2 85 52 126 133 127 53 0 117-12 192-35v227C747 3 654 20 543 20c-247 0-350-124-350-370v-539H47v-129l168-102 88-236h195v238h313v229H498v539" id="W"/><path d="M791-1139c262-1 402 148 401 410V0H887v-653c0-161-60-242-180-242-201 0-242 142-242 369V0H160v-1556h305c-1 210 6 368-14 581h16c68-109 176-164 324-164" id="X"/><path d="M836-686c0-141-77-236-213-236-140 0-206 98-215 236h428zm223 627C946-4 838 19 666 20 308 22 92-191 92-551c0-356 187-588 529-588 314 0 504 195 501 508v148H401c5 169 104 277 279 276 158-2 261-33 379-88v236" id="Y"/><path d="M403-553c0 196 45 334 220 334 192 0 229-123 229-336s-44-336-234-336c-143 0-215 113-215 338zm428 408C771-45 666 20 514 20 221 20 92-235 92-557c0-325 133-582 428-582 160 0 251 63 324 164h8l27-143h258V492H831c5-223-13-428 13-637h-13" id="Z"/><path d="M639-223c202 0 242-139 242-369v-526h305V0H952l-41-143h-16C834-43 709 20 551 20c-263 0-397-147-397-409v-729h305v653c1 148 42 242 180 242" id="aa"/><g id="d"><use transform="matrix(0.013020833333333334,0,0,0.013020833333333334,0,0)" xlink:href="#R"/><use transform="matrix(0.013020833333333334,0,0,0.013020833333333334,17.916666666666668,0)" xlink:href="#S"/><use transform="matrix(0.013020833333333334,0,0,0.013020833333333334,26.0546875,0)" xlink:href="#T"/><use transform="matrix(0.013020833333333334,0,0,0.013020833333333334,42.9296875,0)" xlink:href="#U"/><use transform="matrix(0.013020833333333334,0,0,0.013020833333333334,51.067708333333336,0)" xlink:href="#S"/><use transform="matrix(0.013020833333333334,0,0,0.013020833333333334,59.20572916666667,0)" xlink:href="#V"/><use transform="matrix(0.013020833333333334,0,0,0.013020833333333334,75.71614583333334,0)" xlink:href="#W"/><use transform="matrix(0.013020833333333334,0,0,0.013020833333333334,87.29166666666667,0)" xlink:href="#X"/><use transform="matrix(0.013020833333333334,0,0,0.013020833333333334,104.81770833333334,0)" xlink:href="#Y"/><use transform="matrix(0.013020833333333334,0,0,0.013020833333333334,120.57291666666667,0)" xlink:href="#Z"/><use transform="matrix(0.013020833333333334,0,0,0.013020833333333334,137.44791666666669,0)" xlink:href="#aa"/><use transform="matrix(0.013020833333333334,0,0,0.013020833333333334,154.97395833333334,0)" xlink:href="#Y"/></g><path d="M233-177c-1 41-23 64-60 70L243 0h-38l-65-103H63V0H30v-248c88 3 205-21 203 71zM63-129c60-2 137 13 137-47 0-61-80-42-137-45v92" id="ab"/><path d="M100-194c63 0 86 42 84 106H49c0 40 14 67 53 68 26 1 43-12 49-29l28 8c-11 28-37 45-77 45C44 4 14-33 15-96c1-61 26-98 85-98zm52 81c6-60-76-77-97-28-3 7-6 17-6 28h103" id="ac"/><path d="M96-169c-40 0-48 33-48 73s9 75 48 75c24 0 41-14 43-38l32 2c-6 37-31 61-74 61-59 0-76-41-82-99-10-93 101-131 147-64 4 7 5 14 7 22l-32 3c-4-21-16-35-41-35" id="ad"/><path d="M106-169C34-169 62-67 57 0H25v-261h32l-1 103c12-21 28-36 61-36 89 0 53 116 60 194h-32v-121c2-32-8-49-39-48" id="ae"/><path d="M114-163C36-179 61-72 57 0H25l-1-190h30c1 12-1 29 2 39 6-27 23-49 58-41v29" id="af"/><g id="e"><use transform="matrix(0.05,0,0,0.05,0,0)" xlink:href="#ab"/><use transform="matrix(0.05,0,0,0.05,12.950000000000001,0)" xlink:href="#ac"/><use transform="matrix(0.05,0,0,0.05,22.950000000000003,0)" xlink:href="#ad"/><use transform="matrix(0.05,0,0,0.05,31.950000000000003,0)" xlink:href="#ae"/><use transform="matrix(0.05,0,0,0.05,41.95,0)" xlink:href="#ac"/><use transform="matrix(0.05,0,0,0.05,51.95,0)" xlink:href="#af"/><use transform="matrix(0.05,0,0,0.05,57.900000000000006,0)" xlink:href="#ad"/><use transform="matrix(0.05,0,0,0.05,66.9,0)" xlink:href="#ae"/><use transform="matrix(0.05,0,0,0.05,76.9,0)" xlink:href="#ac"/><use transform="matrix(0.05,0,0,0.05,86.9,0)" xlink:href="#af"/></g><path d="M84 4C-5 8 30-112 23-190h32v120c0 31 7 50 39 49 72-2 45-101 50-169h31l1 190h-30c-1-10 1-25-2-33-11 22-28 36-60 37" id="ag"/><path d="M117-194c89-4 53 116 60 194h-32v-121c0-31-8-49-39-48C34-167 62-67 57 0H25l-1-190h30c1 10-1 24 2 32 11-22 29-35 61-36" id="ah"/><g id="f"><use transform="matrix(0.05,0,0,0.05,0,0)" xlink:href="#ag"/><use transform="matrix(0.05,0,0,0.05,10,0)" xlink:href="#ah"/></g><path d="M24 0v-261h32V0H24" id="ai"/><path d="M24-231v-30h32v30H24zM24 0v-190h32V0H24" id="aj"/><path d="M108 0H70L1-190h34L89-25l56-165h34" id="ak"/><g id="g"><use transform="matrix(0.05,0,0,0.05,0,0)" xlink:href="#ai"/><use transform="matrix(0.05,0,0,0.05,3.95,0)" xlink:href="#aj"/><use transform="matrix(0.05,0,0,0.05,7.9,0)" xlink:href="#ak"/><use transform="matrix(0.05,0,0,0.05,16.9,0)" xlink:href="#af"/><use transform="matrix(0.05,0,0,0.05,22.849999999999998,0)" xlink:href="#ac"/></g><path d="M59-47c-2 24 18 29 38 22v24C64 9 27 4 27-40v-127H5v-23h24l9-43h21v43h35v23H59v120" id="al"/><path d="M100-194c62-1 85 37 85 99 1 63-27 99-86 99S16-35 15-95c0-66 28-99 85-99zM99-20c44 1 53-31 53-75 0-43-8-75-51-75s-53 32-53 75 10 74 51 75" id="am"/><g id="h"><use transform="matrix(0.05,0,0,0.05,0,0)" xlink:href="#af"/><use transform="matrix(0.05,0,0,0.05,5.95,0)" xlink:href="#ac"/><use transform="matrix(0.05,0,0,0.05,15.949999999999998,0)" xlink:href="#al"/><use transform="matrix(0.05,0,0,0.05,20.95,0)" xlink:href="#am"/><use transform="matrix(0.05,0,0,0.05,30.950000000000003,0)" xlink:href="#ag"/><use transform="matrix(0.05,0,0,0.05,40.95,0)" xlink:href="#af"/><use transform="matrix(0.05,0,0,0.05,46.900000000000006,0)" xlink:href="#ah"/><use transform="matrix(0.05,0,0,0.05,56.900000000000006,0)" xlink:href="#ac"/><use transform="matrix(0.05,0,0,0.05,66.9,0)" xlink:href="#af"/></g><g id="i"><use transform="matrix(0.05,0,0,0.05,0,0)" xlink:href="#ag"/><use transform="matrix(0.05,0,0,0.05,10,0)" xlink:href="#ah"/></g><path d="M232-93c-1 65-40 97-104 97C67 4 28-28 28-90v-158h33c8 89-33 224 67 224 102 0 64-133 71-224h33v155" id="an"/><path d="M135-143c-3-34-86-38-87 0 15 53 115 12 119 90S17 21 10-45l28-5c4 36 97 45 98 0-10-56-113-15-118-90-4-57 82-63 122-42 12 7 21 19 24 35" id="ao"/><g id="j"><use transform="matrix(0.06234567901234565,0,0,0.06234567901234565,0,0)" xlink:href="#an"/><use transform="matrix(0.06234567901234565,0,0,0.06234567901234565,16.147530864197524,0)" xlink:href="#ao"/><use transform="matrix(0.06234567901234565,0,0,0.06234567901234565,27.369753086419742,0)" xlink:href="#ac"/><use transform="matrix(0.06234567901234565,0,0,0.06234567901234565,39.838888888888874,0)" xlink:href="#af"/></g><path d="M205 0l-28-72H64L36 0H1l101-248h38L239 0h-34zm-38-99l-47-123c-12 45-31 82-46 123h93" id="ap"/><path d="M85-194c31 0 48 13 60 33l-1-100h32l1 261h-30c-2-10 0-23-3-31C134-8 116 4 85 4 32 4 16-35 15-94c0-66 23-100 70-100zm9 24c-40 0-46 34-46 75 0 40 6 74 45 74 42 0 51-32 51-76 0-42-9-74-50-73" id="aq"/><path d="M210-169c-67 3-38 105-44 169h-31v-121c0-29-5-50-35-48C34-165 62-65 56 0H25l-1-190h30c1 10-1 24 2 32 10-44 99-50 107 0 11-21 27-35 58-36 85-2 47 119 55 194h-31v-121c0-29-5-49-35-48" id="ar"/><g id="k"><use transform="matrix(0.06234567901234565,0,0,0.06234567901234565,0,0)" xlink:href="#ap"/><use transform="matrix(0.06234567901234565,0,0,0.06234567901234565,14.962962962962957,0)" xlink:href="#aq"/><use transform="matrix(0.06234567901234565,0,0,0.06234567901234565,27.432098765432087,0)" xlink:href="#ar"/><use transform="matrix(0.06234567901234565,0,0,0.06234567901234565,46.07345679012344,0)" xlink:href="#aj"/><use transform="matrix(0.06234567901234565,0,0,0.06234567901234565,50.99876543209874,0)" xlink:href="#ah"/></g><path d="M115-194c55 1 70 41 70 98S169 2 115 4C84 4 66-9 55-30l1 105H24l-1-265h31l2 30c10-21 28-34 59-34zm-8 174c40 0 45-34 45-75s-6-73-45-74c-42 0-51 32-51 76 0 43 10 73 51 73" id="as"/><g id="l"><use transform="matrix(0.05,0,0,0.05,0,0)" xlink:href="#ac"/><use transform="matrix(0.05,0,0,0.05,10,0)" xlink:href="#ar"/><use transform="matrix(0.05,0,0,0.05,24.950000000000003,0)" xlink:href="#as"/><use transform="matrix(0.05,0,0,0.05,34.95,0)" xlink:href="#af"/><use transform="matrix(0.05,0,0,0.05,40.900000000000006,0)" xlink:href="#ag"/><use transform="matrix(0.05,0,0,0.05,50.900000000000006,0)" xlink:href="#ah"/><use transform="matrix(0.05,0,0,0.05,60.900000000000006,0)" xlink:href="#al"/><use transform="matrix(0.05,0,0,0.05,65.9,0)" xlink:href="#ac"/><use transform="matrix(0.05,0,0,0.05,75.9,0)" xlink:href="#af"/></g><path d="M137 0h-34L2-248h35l83 218 83-218h36" id="at"/><g id="m"><use transform="matrix(0.05,0,0,0.05,0,0)" xlink:href="#at"/><use transform="matrix(0.05,0,0,0.05,11,0)" xlink:href="#am"/><use transform="matrix(0.05,0,0,0.05,21,0)" xlink:href="#aj"/><use transform="matrix(0.05,0,0,0.05,24.95,0)" xlink:href="#af"/></g><path d="M47-170H22l-4-78h33" id="au"/><path d="M145-31C134-9 116 4 85 4 32 4 16-35 15-94c0-59 17-99 70-100 32-1 48 14 60 33 0-11-1-24 2-32h30l-1 268h-32zM93-21c41 0 51-33 51-76s-8-73-50-73c-40 0-46 35-46 75s5 74 45 74" id="av"/><g id="n"><use transform="matrix(0.05,0,0,0.05,0,0)" xlink:href="#ai"/><use transform="matrix(0.05,0,0,0.05,3.95,0)" xlink:href="#au"/><use transform="matrix(0.05,0,0,0.05,7.3500000000000005,0)" xlink:href="#ae"/><use transform="matrix(0.05,0,0,0.05,17.35,0)" xlink:href="#aj"/><use transform="matrix(0.05,0,0,0.05,21.3,0)" xlink:href="#ao"/><use transform="matrix(0.05,0,0,0.05,30.3,0)" xlink:href="#al"/><use transform="matrix(0.05,0,0,0.05,35.3,0)" xlink:href="#am"/><use transform="matrix(0.05,0,0,0.05,45.3,0)" xlink:href="#af"/><use transform="matrix(0.05,0,0,0.05,51.25,0)" xlink:href="#aj"/><use transform="matrix(0.05,0,0,0.05,55.2,0)" xlink:href="#av"/><use transform="matrix(0.05,0,0,0.05,65.2,0)" xlink:href="#ag"/><use transform="matrix(0.05,0,0,0.05,75.2,0)" xlink:href="#ac"/></g><g id="o"><use transform="matrix(0.05,0,0,0.05,0,0)" xlink:href="#aq"/><use transform="matrix(0.05,0,0,0.05,10,0)" xlink:href="#ac"/><use transform="matrix(0.05,0,0,0.05,20,0)" xlink:href="#ao"/></g><g id="p"><use transform="matrix(0.05,0,0,0.05,0,0)" xlink:href="#ac"/><use transform="matrix(0.05,0,0,0.05,10,0)" xlink:href="#ar"/><use transform="matrix(0.05,0,0,0.05,24.950000000000003,0)" xlink:href="#as"/><use transform="matrix(0.05,0,0,0.05,34.95,0)" xlink:href="#af"/><use transform="matrix(0.05,0,0,0.05,40.900000000000006,0)" xlink:href="#ag"/><use transform="matrix(0.05,0,0,0.05,50.900000000000006,0)" xlink:href="#ah"/><use transform="matrix(0.05,0,0,0.05,60.900000000000006,0)" xlink:href="#al"/><use transform="matrix(0.05,0,0,0.05,65.9,0)" xlink:href="#ac"/><use transform="matrix(0.05,0,0,0.05,75.9,0)" xlink:href="#ao"/></g><path d="M143 4C61 4 22-44 18-125c-5-107 100-154 193-111 17 8 29 25 37 43l-32 9c-13-25-37-40-76-40-61 0-88 39-88 99 0 61 29 100 91 101 35 0 62-11 79-27v-45h-74v-28h105v86C228-13 192 4 143 4" id="aw"/><g id="q"><use transform="matrix(0.05,0,0,0.05,0,0)" xlink:href="#aw"/><use transform="matrix(0.05,0,0,0.05,14,0)" xlink:href="#ac"/><use transform="matrix(0.05,0,0,0.05,24,0)" xlink:href="#af"/><use transform="matrix(0.05,0,0,0.05,29.950000000000003,0)" xlink:href="#ac"/><use transform="matrix(0.05,0,0,0.05,39.95,0)" xlink:href="#af"/></g><g id="r"><use transform="matrix(0.05,0,0,0.05,0,0)" xlink:href="#ai"/><use transform="matrix(0.05,0,0,0.05,3.95,0)" xlink:href="#ac"/><use transform="matrix(0.05,0,0,0.05,13.949999999999998,0)" xlink:href="#ao"/></g><g id="s"><use transform="matrix(0.05,0,0,0.05,0,0)" xlink:href="#ai"/><use transform="matrix(0.05,0,0,0.05,3.95,0)" xlink:href="#aj"/><use transform="matrix(0.05,0,0,0.05,7.9,0)" xlink:href="#ak"/><use transform="matrix(0.05,0,0,0.05,16.9,0)" xlink:href="#af"/><use transform="matrix(0.05,0,0,0.05,22.849999999999998,0)" xlink:href="#ac"/><use transform="matrix(0.05,0,0,0.05,32.849999999999994,0)" xlink:href="#ao"/></g><path d="M185-189c-5-48-123-54-124 2 14 75 158 14 163 119 3 78-121 87-175 55-17-10-28-26-33-46l33-7c5 56 141 63 141-1 0-78-155-14-162-118-5-82 145-84 179-34 5 7 8 16 11 25" id="ax"/><g id="t"><use transform="matrix(0.05,0,0,0.05,0,0)" xlink:href="#ax"/><use transform="matrix(0.05,0,0,0.05,12,0)" xlink:href="#ag"/><use transform="matrix(0.05,0,0,0.05,22,0)" xlink:href="#aj"/><use transform="matrix(0.05,0,0,0.05,25.950000000000003,0)" xlink:href="#ak"/><use transform="matrix(0.05,0,0,0.05,34.95,0)" xlink:href="#af"/><use transform="matrix(0.05,0,0,0.05,40.900000000000006,0)" xlink:href="#ac"/></g><g id="u"><use transform="matrix(0.05,0,0,0.05,0,0)" xlink:href="#ai"/><use transform="matrix(0.05,0,0,0.05,3.95,0)" xlink:href="#ac"/><use transform="matrix(0.05,0,0,0.05,13.949999999999998,0)" xlink:href="#ao"/></g><g id="v"><use transform="matrix(0.05,0,0,0.05,0,0)" xlink:href="#ac"/><use transform="matrix(0.05,0,0,0.05,10,0)" xlink:href="#ar"/><use transform="matrix(0.05,0,0,0.05,24.950000000000003,0)" xlink:href="#as"/><use transform="matrix(0.05,0,0,0.05,34.95,0)" xlink:href="#af"/><use transform="matrix(0.05,0,0,0.05,40.900000000000006,0)" xlink:href="#ag"/><use transform="matrix(0.05,0,0,0.05,50.900000000000006,0)" xlink:href="#ah"/><use transform="matrix(0.05,0,0,0.05,60.900000000000006,0)" xlink:href="#al"/><use transform="matrix(0.05,0,0,0.05,65.9,0)" xlink:href="#ac"/><use transform="matrix(0.05,0,0,0.05,75.9,0)" xlink:href="#ao"/></g><path d="M100-194c63 0 86 42 84 106H49c0 40 14 67 53 68 26 1 43-12 49-29l28 8c-11 28-37 45-77 45C44 4 14-33 15-96c1-61 26-98 85-98zm52 81c6-60-76-77-97-28-3 7-6 17-6 28h103zm-74-98c8-23 27-35 38-54h36v5l-58 49H78" id="ay"/><g id="w"><use transform="matrix(0.05,0,0,0.05,0,0)" xlink:href="#aw"/><use transform="matrix(0.05,0,0,0.05,14,0)" xlink:href="#ay"/><use transform="matrix(0.05,0,0,0.05,24,0)" xlink:href="#af"/><use transform="matrix(0.05,0,0,0.05,29.950000000000003,0)" xlink:href="#ac"/><use transform="matrix(0.05,0,0,0.05,39.95,0)" xlink:href="#af"/></g><path d="M141-36C126-15 110 5 73 4 37 3 15-17 15-53c-1-64 63-63 125-63 3-35-9-54-41-54-24 1-41 7-42 31l-33-3c5-37 33-52 76-52 45 0 72 20 72 64v82c-1 20 7 32 28 27v20c-31 9-61-2-59-35zM48-53c0 20 12 33 32 33 41-3 63-29 60-74-43 2-92-5-92 41" id="az"/><g id="x"><use transform="matrix(0.05,0,0,0.05,0,0)" xlink:href="#ag"/><use transform="matrix(0.05,0,0,0.05,10,0)" xlink:href="#al"/><use transform="matrix(0.05,0,0,0.05,15,0)" xlink:href="#aj"/><use transform="matrix(0.05,0,0,0.05,18.95,0)" xlink:href="#ai"/><use transform="matrix(0.05,0,0,0.05,22.9,0)" xlink:href="#aj"/><use transform="matrix(0.05,0,0,0.05,26.849999999999994,0)" xlink:href="#ao"/><use transform="matrix(0.05,0,0,0.05,35.849999999999994,0)" xlink:href="#az"/><use transform="matrix(0.05,0,0,0.05,45.849999999999994,0)" xlink:href="#al"/><use transform="matrix(0.05,0,0,0.05,50.849999999999994,0)" xlink:href="#ac"/><use transform="matrix(0.05,0,0,0.05,60.849999999999994,0)" xlink:href="#ag"/><use transform="matrix(0.05,0,0,0.05,70.85,0)" xlink:href="#af"/><use transform="matrix(0.05,0,0,0.05,76.8,0)" xlink:href="#ao"/></g><path d="M199 0l-22-63H83L61 0H9l90-248h61L250 0h-51zm-33-102l-36-108c-10 38-24 72-36 108h72" id="aA"/><path d="M85 4C-2 5 27-109 22-190h50c7 57-23 150 33 157 60-5 35-97 40-157h50l1 190h-47c-2-12 1-28-3-38-12 25-28 42-61 42" id="aB"/><path d="M114-157C55-157 80-60 75 0H25v-261h50l-1 109c12-26 28-41 61-42 86-1 58 113 63 194h-50c-7-57 23-157-34-157" id="aC"/><path d="M121-226c-27-7-43 5-38 36h38v33H83V0H34v-157H6v-33h28c-9-59 32-81 87-68v32" id="aD"/><path d="M190-63c-7 42-38 67-86 67-59 0-84-38-90-98-12-110 154-137 174-36l-49 2c-2-19-15-32-35-32-30 0-35 28-38 64-6 74 65 87 74 30" id="aE"/><path d="M133-34C117-15 103 5 69 4 32 3 11-16 11-54c-1-60 55-63 116-61 1-26-3-47-28-47-18 1-26 9-28 27l-52-2c7-38 36-58 82-57s74 22 75 68l1 82c-1 14 12 18 25 15v27c-30 8-71 5-69-32zm-48 3c29 0 43-24 42-57-32 0-66-3-65 30 0 17 8 27 23 27" id="aF"/><g id="y"><use transform="matrix(0.08641975308641976,0,0,0.08641975308641976,0,0)" xlink:href="#aA"/><use transform="matrix(0.08641975308641976,0,0,0.08641975308641976,22.38271604938272,0)" xlink:href="#aB"/><use transform="matrix(0.08641975308641976,0,0,0.08641975308641976,41.308641975308646,0)" xlink:href="#J"/><use transform="matrix(0.08641975308641976,0,0,0.08641975308641976,51.592592592592595,0)" xlink:href="#aC"/><use transform="matrix(0.08641975308641976,0,0,0.08641975308641976,70.51851851851852,0)" xlink:href="#K"/><use transform="matrix(0.08641975308641976,0,0,0.08641975308641976,87.80246913580247,0)" xlink:href="#Q"/><use transform="matrix(0.08641975308641976,0,0,0.08641975308641976,106.72839506172839,0)" xlink:href="#J"/><use transform="matrix(0.08641975308641976,0,0,0.08641975308641976,117.01234567901234,0)" xlink:href="#O"/><use transform="matrix(0.08641975308641976,0,0,0.08641975308641976,125.65432098765432,0)" xlink:href="#aD"/><use transform="matrix(0.08641975308641976,0,0,0.08641975308641976,135.93827160493828,0)" xlink:href="#O"/><use transform="matrix(0.08641975308641976,0,0,0.08641975308641976,144.58024691358025,0)" xlink:href="#aE"/><use transform="matrix(0.08641975308641976,0,0,0.08641975308641976,161.8641975308642,0)" xlink:href="#aF"/><use transform="matrix(0.08641975308641976,0,0,0.08641975308641976,179.14814814814818,0)" xlink:href="#J"/><use transform="matrix(0.08641975308641976,0,0,0.08641975308641976,189.43209876543213,0)" xlink:href="#O"/><use transform="matrix(0.08641975308641976,0,0,0.08641975308641976,198.0740740740741,0)" xlink:href="#P"/><use transform="matrix(0.08641975308641976,0,0,0.08641975308641976,216.99999999999997,0)" xlink:href="#Q"/></g><path d="M101-234c-31-9-42 10-38 44h38v23H63V0H32v-167H5v-23h27c-7-52 17-82 69-68v24" id="aG"/><g id="z"><use transform="matrix(0.05,0,0,0.05,0,0)" xlink:href="#ac"/><use transform="matrix(0.05,0,0,0.05,10,0)" xlink:href="#aG"/><use transform="matrix(0.05,0,0,0.05,14.65,0)" xlink:href="#aG"/><use transform="matrix(0.05,0,0,0.05,19.65,0)" xlink:href="#ac"/><use transform="matrix(0.05,0,0,0.05,29.649999999999995,0)" xlink:href="#ad"/><use transform="matrix(0.05,0,0,0.05,38.65,0)" xlink:href="#al"/><use transform="matrix(0.05,0,0,0.05,43.65,0)" xlink:href="#ag"/><use transform="matrix(0.05,0,0,0.05,53.650000000000006,0)" xlink:href="#ac"/><use transform="matrix(0.05,0,0,0.05,63.650000000000006,0)" xlink:href="#af"/></g><g id="A"><use transform="matrix(0.05,0,0,0.05,0,0)" xlink:href="#ag"/><use transform="matrix(0.05,0,0,0.05,10,0)" xlink:href="#ah"/><use transform="matrix(0.05,0,0,0.05,20,0)" xlink:href="#ac"/></g><g id="B"><use transform="matrix(0.05,0,0,0.05,0,0)" xlink:href="#aq"/><use transform="matrix(0.05,0,0,0.05,10,0)" xlink:href="#ac"/><use transform="matrix(0.05,0,0,0.05,20,0)" xlink:href="#ar"/><use transform="matrix(0.05,0,0,0.05,34.95,0)" xlink:href="#az"/><use transform="matrix(0.05,0,0,0.05,44.95,0)" xlink:href="#ah"/><use transform="matrix(0.05,0,0,0.05,54.95,0)" xlink:href="#aq"/><use transform="matrix(0.05,0,0,0.05,64.95,0)" xlink:href="#ac"/></g><path d="M24-231v-30h32v30H24zM-9 49c24 4 33-6 33-30v-209h32V24c2 40-23 58-65 49V49" id="aH"/><g id="C"><use transform="matrix(0.05,0,0,0.05,0,0)" xlink:href="#ap"/><use transform="matrix(0.05,0,0,0.05,12,0)" xlink:href="#aH"/><use transform="matrix(0.05,0,0,0.05,15.949999999999998,0)" xlink:href="#am"/><use transform="matrix(0.05,0,0,0.05,25.950000000000003,0)" xlink:href="#ag"/><use transform="matrix(0.05,0,0,0.05,35.95,0)" xlink:href="#al"/><use transform="matrix(0.05,0,0,0.05,40.95,0)" xlink:href="#ac"/><use transform="matrix(0.05,0,0,0.05,50.95,0)" xlink:href="#af"/></g><path d="M115-194c53 0 69 39 70 98 0 66-23 100-70 100C84 3 66-7 56-30L54 0H23l1-261h32v101c10-23 28-34 59-34zm-8 174c40 0 45-34 45-75 0-40-5-75-45-74-42 0-51 32-51 76 0 43 10 73 51 73" id="aI"/><g id="D"><use transform="matrix(0.05,0,0,0.05,0,0)" xlink:href="#ah"/><use transform="matrix(0.05,0,0,0.05,10,0)" xlink:href="#ac"/><use transform="matrix(0.05,0,0,0.05,20,0)" xlink:href="#ar"/><use transform="matrix(0.05,0,0,0.05,34.95,0)" xlink:href="#aI"/><use transform="matrix(0.05,0,0,0.05,44.95,0)" xlink:href="#af"/><use transform="matrix(0.05,0,0,0.05,50.900000000000006,0)" xlink:href="#ac"/></g><path fill="#333" d="M15-91v-56l181-69v40L49-119l147 57v40" id="aJ"/><path fill="#333" d="M25-224v-37h50v37H25zM25 0v-190h50V0H25" id="aK"/><path fill="#333" d="M135-194c87-1 58 113 63 194h-50c-7-57 23-157-34-157-59 0-34 97-39 157H25l-1-190h47c2 12-1 28 3 38 12-26 28-41 61-42" id="aL"/><path fill="#333" d="M190-63c-7 42-38 67-86 67-59 0-84-38-90-98-12-110 154-137 174-36l-49 2c-2-19-15-32-35-32-30 0-35 28-38 64-6 74 65 87 74 30" id="aM"/><path fill="#333" d="M25 0v-261h50V0H25" id="aN"/><path fill="#333" d="M85 4C-2 5 27-109 22-190h50c7 57-23 150 33 157 60-5 35-97 40-157h50l1 190h-47c-2-12 1-28-3-38-12 25-28 42-61 42" id="aO"/><path fill="#333" d="M88-194c31-1 46 15 58 34l-1-101h50l1 261h-48c-2-10 0-23-3-31C134-8 116 4 84 4 32 4 16-41 15-95c0-56 19-97 73-99zm17 164c33 0 40-30 41-66 1-37-9-64-41-64s-38 30-39 65c0 43 13 65 39 65" id="aP"/><path fill="#333" d="M185-48c-13 30-37 53-82 52C43 2 14-33 14-96s30-98 90-98c62 0 83 45 84 108H66c0 31 8 55 39 56 18 0 30-7 34-22zm-45-69c5-46-57-63-70-21-2 6-4 13-4 21h74" id="aQ"/><path fill="#333" d="M15-22v-40l146-57-146-57v-40l181 69v56" id="aR"/><g id="E"><use transform="matrix(0.04938271604938272,0,0,0.04938271604938272,0,0)" xlink:href="#aJ"/><use transform="matrix(0.04938271604938272,0,0,0.04938271604938272,10.370370370370372,0)" xlink:href="#aJ"/><use transform="matrix(0.04938271604938272,0,0,0.04938271604938272,20.740740740740744,0)" xlink:href="#aK"/><use transform="matrix(0.04938271604938272,0,0,0.04938271604938272,25.679012345679016,0)" xlink:href="#aL"/><use transform="matrix(0.04938271604938272,0,0,0.04938271604938272,36.49382716049383,0)" xlink:href="#aM"/><use transform="matrix(0.04938271604938272,0,0,0.04938271604938272,46.370370370370374,0)" xlink:href="#aN"/><use transform="matrix(0.04938271604938272,0,0,0.04938271604938272,51.308641975308646,0)" xlink:href="#aO"/><use transform="matrix(0.04938271604938272,0,0,0.04938271604938272,62.12345679012346,0)" xlink:href="#aP"/><use transform="matrix(0.04938271604938272,0,0,0.04938271604938272,72.93827160493828,0)" xlink:href="#aQ"/><use transform="matrix(0.04938271604938272,0,0,0.04938271604938272,82.81481481481482,0)" xlink:href="#aR"/><use transform="matrix(0.04938271604938272,0,0,0.04938271604938272,93.18518518518519,0)" xlink:href="#aR"/></g><g id="F"><use transform="matrix(0.05,0,0,0.05,0,0)" xlink:href="#aq"/><use transform="matrix(0.05,0,0,0.05,10,0)" xlink:href="#ac"/><use transform="matrix(0.05,0,0,0.05,20,0)" xlink:href="#ao"/><use transform="matrix(0.05,0,0,0.05,29,0)" xlink:href="#az"/><use transform="matrix(0.05,0,0,0.05,39,0)" xlink:href="#ad"/><use transform="matrix(0.05,0,0,0.05,48,0)" xlink:href="#al"/><use transform="matrix(0.05,0,0,0.05,53,0)" xlink:href="#aj"/><use transform="matrix(0.05,0,0,0.05,56.95,0)" xlink:href="#ak"/><use transform="matrix(0.05,0,0,0.05,65.95,0)" xlink:href="#ac"/></g></defs></g></svg>